<?xml version="1.0" encoding="utf-8"?>
<!-- Generator: Adobe Illustrator 24.0.1, SVG Export Plug-In . SVG Version: 6.00 Build 0)  -->
<svg version="1.1" id="Vrstva_1" xmlns="http://www.w3.org/2000/svg" xmlns:xlink="http://www.w3.org/1999/xlink" x="0px" y="0px"
	 viewBox="0 0 200 200" style="enable-background:new 0 0 200 200;" xml:space="preserve">
<style type="text/css">
	.st0{fill:#22262A;}
	.st1{fill:#E03E61;}
</style>
<g>
</g>
<g>
</g>
<g>
</g>
<g>
	<path class="st0" d="M-287.94,32c-1.8,0-3.19-0.5-4.16-1.51c-0.97-1-1.46-2.41-1.46-4.21v-15.5h-15.18c-1.73,0-3.09-0.47-4.06-1.4
		c-0.97-0.94-1.46-2.27-1.46-4c0-1.73,0.48-3.07,1.46-4c0.97-0.94,2.32-1.4,4.06-1.4h15.18v-14.87c0-1.87,0.48-3.29,1.46-4.26
		c0.97-0.97,2.39-1.46,4.26-1.46c1.8,0,3.17,0.49,4.11,1.46c0.94,0.97,1.4,2.39,1.4,4.26v14.87h15.18c1.8,0,3.17,0.47,4.11,1.4
		c0.94,0.94,1.4,2.27,1.4,4c0,1.73-0.47,3.07-1.4,4c-0.94,0.94-2.31,1.4-4.11,1.4h-15.18v15.5c0,1.8-0.47,3.21-1.4,4.21
		C-284.67,31.49-286.07,32-287.94,32z"/>
	<path class="st0" d="M-228.56,36.36c-3.68,0-7.4-0.43-11.18-1.3c-3.78-0.87-7.06-2.1-9.83-3.69c-1.8-0.97-3.03-2.13-3.69-3.48
		c-0.66-1.35-0.9-2.69-0.73-4c0.17-1.32,0.71-2.48,1.61-3.48c0.9-1,2.06-1.65,3.48-1.92c1.42-0.28,3,0,4.73,0.83
		c2.7,1.32,5.27,2.25,7.7,2.81c2.43,0.56,4.85,0.83,7.28,0.83c2.77,0,5.1-0.36,6.97-1.09c1.87-0.73,3.29-1.78,4.26-3.17
		c0.97-1.39,1.46-3.12,1.46-5.2c0-2.91-1.01-5.1-3.02-6.55c-2.01-1.46-4.96-2.18-8.84-2.18h-6.14c-2.29,0-4.04-0.57-5.25-1.72
		c-1.21-1.14-1.82-2.72-1.82-4.73c0-2.08,0.61-3.69,1.82-4.84c1.21-1.14,2.96-1.72,5.25-1.72h4.58c2.36,0,4.35-0.36,5.98-1.09
		c1.63-0.73,2.91-1.75,3.85-3.07c0.94-1.32,1.4-2.95,1.4-4.89c0-2.77-0.95-4.89-2.86-6.34c-1.91-1.46-4.66-2.18-8.27-2.18
		c-2.22,0-4.4,0.26-6.55,0.78c-2.15,0.52-4.47,1.44-6.97,2.76c-1.53,0.76-2.95,1.01-4.26,0.73c-1.32-0.28-2.41-0.9-3.28-1.87
		c-0.87-0.97-1.42-2.1-1.66-3.38c-0.24-1.28-0.07-2.58,0.52-3.9c0.59-1.32,1.68-2.39,3.28-3.22c2.98-1.73,6.22-3.05,9.72-3.95
		c3.5-0.9,7.05-1.35,10.66-1.35c5.27,0,9.78,0.8,13.52,2.39c3.74,1.6,6.62,3.87,8.63,6.81c2.01,2.95,3.02,6.5,3.02,10.66
		c0,2.84-0.56,5.44-1.66,7.8c-1.11,2.36-2.65,4.35-4.63,5.98c-1.98,1.63-4.39,2.79-7.23,3.48v-1.35c4.92,0.83,8.77,2.88,11.54,6.14
		c2.77,3.26,4.16,7.35,4.16,12.27c0,4.37-1.11,8.16-3.33,11.39c-2.22,3.22-5.39,5.7-9.52,7.44
		C-217.97,35.5-222.88,36.36-228.56,36.36z"/>
	<path class="st0" d="M-165.64,36.36c-8.88,0-15.65-3.31-20.33-9.93c-4.68-6.62-7.02-16-7.02-28.13c0-8.11,1.06-14.96,3.17-20.54
		c2.11-5.58,5.2-9.81,9.26-12.69c4.06-2.88,9.03-4.32,14.92-4.32c8.94,0,15.74,3.21,20.38,9.62c4.64,6.41,6.97,15.72,6.97,27.92
		c0,8.11-1.06,14.99-3.17,20.64c-2.12,5.65-5.18,9.97-9.2,12.95C-154.69,34.87-159.68,36.36-165.64,36.36z M-165.64,23.26
		c4.02,0,7-1.99,8.94-5.98c1.94-3.99,2.91-10.31,2.91-18.98c0-8.67-0.97-14.91-2.91-18.72c-1.94-3.81-4.92-5.72-8.94-5.72
		c-4.02,0-7,1.91-8.94,5.72c-1.94,3.81-2.91,10.05-2.91,18.72c0,8.67,0.97,14.99,2.91,18.98
		C-172.65,21.27-169.66,23.26-165.64,23.26z"/>
	<path class="st0" d="M-298.45,94.8c-1.48,0-3-0.12-4.53-0.34c-1.54-0.23-3-0.56-4.4-0.98c-1.4-0.42-2.64-0.95-3.74-1.59
		c-0.78-0.42-1.33-0.98-1.64-1.67c-0.32-0.69-0.43-1.39-0.34-2.09s0.35-1.33,0.79-1.88c0.44-0.55,1.01-0.9,1.7-1.06
		c0.69-0.16,1.46-0.03,2.31,0.4c1.45,0.81,3.03,1.41,4.74,1.8s3.42,0.58,5.12,0.58c2.58,0,4.42-0.4,5.51-1.19
		c1.09-0.79,1.64-1.79,1.64-3c0-1.02-0.39-1.84-1.17-2.44c-0.78-0.6-2.14-1.11-4.08-1.54l-5.99-1.27c-3.39-0.71-5.91-1.92-7.55-3.63
		c-1.64-1.71-2.46-3.97-2.46-6.76c0-1.77,0.37-3.37,1.11-4.82c0.74-1.45,1.78-2.7,3.13-3.76c1.34-1.06,2.94-1.87,4.8-2.44
		c1.85-0.56,3.9-0.85,6.12-0.85c1.98,0,3.92,0.24,5.83,0.72s3.59,1.17,5.04,2.09c0.71,0.42,1.19,0.96,1.46,1.62
		c0.27,0.65,0.35,1.31,0.27,1.96c-0.09,0.65-0.35,1.23-0.79,1.72c-0.44,0.5-1,0.81-1.67,0.95c-0.67,0.14-1.48-0.02-2.44-0.48
		c-1.17-0.6-2.4-1.04-3.71-1.32s-2.65-0.42-4.03-0.42c-1.48,0-2.75,0.2-3.79,0.58c-1.04,0.39-1.84,0.94-2.38,1.64
		s-0.82,1.52-0.82,2.44c0,1.03,0.37,1.86,1.11,2.49c0.74,0.64,2.03,1.15,3.87,1.54l5.99,1.27c3.46,0.74,6.04,1.93,7.74,3.58
		c1.7,1.64,2.54,3.81,2.54,6.49c0,1.77-0.35,3.37-1.06,4.8c-0.71,1.43-1.73,2.66-3.07,3.68c-1.34,1.02-2.95,1.81-4.82,2.36
		C-294.01,94.53-296.12,94.8-298.45,94.8z"/>
	<path class="st0" d="M-260.34,94.8c-4.03,0-7.47-0.79-10.33-2.38c-2.86-1.59-5.06-3.82-6.6-6.71c-1.54-2.88-2.31-6.28-2.31-10.2
		c0-2.93,0.43-5.57,1.3-7.92c0.87-2.35,2.13-4.36,3.79-6.04c1.66-1.68,3.68-2.98,6.07-3.9c2.38-0.92,5.08-1.38,8.08-1.38
		c1.77,0,3.56,0.22,5.38,0.66c1.82,0.44,3.4,1.07,4.74,1.88c0.88,0.5,1.48,1.11,1.8,1.85c0.32,0.74,0.42,1.48,0.29,2.23
		s-0.42,1.38-0.9,1.91c-0.48,0.53-1.07,0.87-1.78,1.01c-0.71,0.14-1.5-0.02-2.39-0.48c-1.06-0.64-2.17-1.09-3.34-1.38
		c-1.17-0.28-2.35-0.42-3.55-0.42c-2.37,0-4.36,0.47-5.96,1.4s-2.82,2.29-3.63,4.05c-0.81,1.77-1.22,3.94-1.22,6.52
		c0,2.54,0.41,4.72,1.22,6.52c0.81,1.8,2.02,3.17,3.63,4.11s3.6,1.4,5.96,1.4c1.13,0,2.29-0.14,3.47-0.42
		c1.18-0.28,2.32-0.72,3.42-1.33c0.92-0.46,1.74-0.63,2.46-0.5c0.72,0.12,1.33,0.44,1.8,0.95c0.48,0.51,0.78,1.12,0.9,1.83
		c0.12,0.71,0.04,1.41-0.24,2.12c-0.28,0.71-0.81,1.31-1.59,1.8c-1.31,0.88-2.92,1.57-4.82,2.07
		C-256.58,94.55-258.47,94.8-260.34,94.8z"/>
	<path class="st0" d="M-226.79,94.8c-3.67,0-6.9-0.8-9.67-2.41s-4.93-3.86-6.47-6.76c-1.54-2.9-2.31-6.27-2.31-10.12
		c0-2.93,0.43-5.57,1.3-7.92c0.87-2.35,2.11-4.36,3.74-6.04c1.63-1.68,3.58-2.98,5.86-3.9c2.28-0.92,4.8-1.38,7.55-1.38
		c3.75,0,7,0.8,9.75,2.39c2.76,1.59,4.9,3.82,6.44,6.7s2.31,6.25,2.31,10.1c0,2.93-0.44,5.58-1.33,7.95
		c-0.88,2.37-2.14,4.4-3.76,6.09c-1.63,1.7-3.57,3-5.83,3.92C-221.48,94.34-224,94.8-226.79,94.8z M-226.79,87.81
		c2.08,0,3.86-0.49,5.33-1.46s2.6-2.39,3.39-4.24c0.79-1.86,1.19-4.05,1.19-6.6c0-3.89-0.87-6.9-2.6-9.04
		c-1.73-2.14-4.17-3.21-7.31-3.21c-2.05,0-3.82,0.48-5.3,1.43c-1.48,0.95-2.62,2.35-3.39,4.19c-0.78,1.84-1.17,4.05-1.17,6.63
		c0,3.85,0.87,6.86,2.6,9.04C-232.32,86.72-229.9,87.81-226.79,87.81z"/>
	<path class="st0" d="M-198.44,94.7c-1.34,0-2.37-0.37-3.07-1.11c-0.71-0.74-1.06-1.78-1.06-3.13V61.04c0-1.38,0.36-2.42,1.09-3.13
		c0.72-0.71,1.76-1.06,3.1-1.06h12.88c4.17,0,7.38,1.01,9.65,3.02c2.26,2.01,3.39,4.82,3.39,8.43c0,2.33-0.51,4.35-1.54,6.04
		c-1.03,1.7-2.5,3-4.43,3.92c-1.93,0.92-4.29,1.38-7.08,1.38l0.42-0.9h2.17c1.48,0,2.78,0.36,3.9,1.09
		c1.11,0.72,2.08,1.83,2.89,3.31l3.29,6.09c0.49,0.88,0.72,1.75,0.69,2.6c-0.04,0.85-0.35,1.54-0.95,2.07
		c-0.6,0.53-1.48,0.79-2.65,0.79s-2.11-0.25-2.84-0.74c-0.72-0.5-1.37-1.25-1.93-2.28l-5.09-9.38c-0.53-0.99-1.17-1.66-1.93-2.01
		c-0.76-0.35-1.69-0.53-2.78-0.53h-4.03v10.71c0,1.34-0.34,2.38-1.03,3.13C-196.08,94.33-197.1,94.7-198.44,94.7z M-194.36,73.81
		h7.37c2.19,0,3.84-0.44,4.96-1.33c1.11-0.88,1.67-2.21,1.67-3.97c0-1.73-0.56-3.04-1.67-3.92c-1.11-0.88-2.76-1.33-4.96-1.33h-7.37
		V73.81z"/>
	<path class="st0" d="M-162.03,94.22c-1.38,0-2.44-0.37-3.18-1.11s-1.11-1.8-1.11-3.18V61.15c0-1.38,0.37-2.44,1.11-3.18
		s1.8-1.11,3.18-1.11h18.5c1.06,0,1.86,0.27,2.41,0.82c0.55,0.55,0.82,1.33,0.82,2.36c0,1.06-0.27,1.86-0.82,2.41
		c-0.55,0.55-1.35,0.82-2.41,0.82h-14.95v8.75h13.73c1.09,0,1.92,0.27,2.46,0.82c0.55,0.55,0.82,1.35,0.82,2.41
		c0,1.06-0.27,1.86-0.82,2.41c-0.55,0.55-1.37,0.82-2.46,0.82h-13.73v9.33h14.95c1.06,0,1.86,0.27,2.41,0.82
		c0.55,0.55,0.82,1.33,0.82,2.36c0,1.06-0.27,1.86-0.82,2.41c-0.55,0.55-1.35,0.82-2.41,0.82H-162.03z"/>
</g>
<g>
	<path class="st1" d="M-302.17,184.88c-1.8,0-3.19-0.5-4.16-1.51c-0.97-1-1.46-2.41-1.46-4.21v-15.5h-15.18
		c-1.73,0-3.09-0.47-4.06-1.4c-0.97-0.94-1.46-2.27-1.46-4c0-1.73,0.48-3.07,1.46-4c0.97-0.94,2.32-1.4,4.06-1.4h15.18v-14.87
		c0-1.87,0.48-3.29,1.46-4.26c0.97-0.97,2.39-1.46,4.26-1.46c1.8,0,3.17,0.49,4.11,1.46c0.94,0.97,1.4,2.39,1.4,4.26v14.87h15.18
		c1.8,0,3.17,0.47,4.11,1.4c0.94,0.94,1.4,2.27,1.4,4c0,1.73-0.47,3.07-1.4,4c-0.94,0.94-2.31,1.4-4.11,1.4h-15.18v15.5
		c0,1.8-0.47,3.21-1.4,4.21C-298.89,184.38-300.29,184.88-302.17,184.88z"/>
	<path class="st1" d="M-242.78,189.25c-3.68,0-7.4-0.43-11.18-1.3c-3.78-0.87-7.06-2.1-9.83-3.69c-1.8-0.97-3.03-2.13-3.69-3.48
		c-0.66-1.35-0.9-2.69-0.73-4c0.17-1.32,0.71-2.48,1.61-3.48c0.9-1,2.06-1.65,3.48-1.92c1.42-0.28,3,0,4.73,0.83
		c2.7,1.32,5.27,2.25,7.7,2.81c2.43,0.56,4.85,0.83,7.28,0.83c2.77,0,5.1-0.36,6.97-1.09s3.29-1.78,4.26-3.17
		c0.97-1.39,1.46-3.12,1.46-5.2c0-2.91-1.01-5.1-3.02-6.55c-2.01-1.46-4.96-2.18-8.84-2.18h-6.14c-2.29,0-4.04-0.57-5.25-1.72
		c-1.21-1.14-1.82-2.72-1.82-4.73c0-2.08,0.61-3.69,1.82-4.84c1.21-1.14,2.96-1.72,5.25-1.72h4.58c2.36,0,4.35-0.36,5.98-1.09
		c1.63-0.73,2.91-1.75,3.85-3.07c0.94-1.32,1.4-2.95,1.4-4.89c0-2.77-0.95-4.89-2.86-6.34c-1.91-1.46-4.66-2.18-8.27-2.18
		c-2.22,0-4.4,0.26-6.55,0.78c-2.15,0.52-4.47,1.44-6.97,2.76c-1.53,0.76-2.95,1.01-4.26,0.73c-1.32-0.28-2.41-0.9-3.28-1.87
		c-0.87-0.97-1.42-2.1-1.66-3.38c-0.24-1.28-0.07-2.58,0.52-3.9c0.59-1.32,1.68-2.39,3.28-3.22c2.98-1.73,6.22-3.05,9.72-3.95
		c3.5-0.9,7.05-1.35,10.66-1.35c5.27,0,9.78,0.8,13.52,2.39c3.74,1.6,6.62,3.87,8.63,6.81c2.01,2.95,3.02,6.5,3.02,10.66
		c0,2.84-0.56,5.44-1.66,7.8c-1.11,2.36-2.65,4.35-4.63,5.98c-1.98,1.63-4.39,2.79-7.23,3.48v-1.35c4.92,0.83,8.77,2.88,11.54,6.14
		c2.77,3.26,4.16,7.35,4.16,12.27c0,4.37-1.11,8.16-3.33,11.39c-2.22,3.22-5.39,5.7-9.52,7.44
		C-232.19,188.38-237.1,189.25-242.78,189.25z"/>
	<path class="st1" d="M-179.86,189.25c-8.88,0-15.65-3.31-20.33-9.93c-4.68-6.62-7.02-16-7.02-28.13c0-8.11,1.06-14.96,3.17-20.54
		c2.11-5.58,5.2-9.81,9.26-12.69c4.06-2.88,9.03-4.32,14.92-4.32c8.94,0,15.74,3.21,20.38,9.62c4.64,6.41,6.97,15.72,6.97,27.92
		c0,8.11-1.06,14.99-3.17,20.64c-2.12,5.65-5.18,9.97-9.2,12.95C-168.91,187.76-173.9,189.25-179.86,189.25z M-179.86,176.15
		c4.02,0,7-1.99,8.94-5.98c1.94-3.99,2.91-10.31,2.91-18.98c0-8.67-0.97-14.91-2.91-18.72c-1.94-3.81-4.92-5.72-8.94-5.72
		c-4.02,0-7,1.91-8.94,5.72c-1.94,3.81-2.91,10.05-2.91,18.72c0,8.67,0.97,14.99,2.91,18.98
		C-186.87,174.16-183.89,176.15-179.86,176.15z"/>
	<path class="st1" d="M-312.67,247.69c-1.48,0-2.99-0.12-4.53-0.34c-1.54-0.23-3-0.56-4.4-0.98c-1.4-0.42-2.64-0.95-3.74-1.59
		c-0.78-0.42-1.33-0.98-1.64-1.67c-0.32-0.69-0.43-1.39-0.34-2.09c0.09-0.71,0.35-1.33,0.79-1.88c0.44-0.55,1.01-0.9,1.7-1.06
		c0.69-0.16,1.46-0.03,2.31,0.4c1.45,0.81,3.03,1.41,4.74,1.8c1.71,0.39,3.42,0.58,5.11,0.58c2.58,0,4.42-0.4,5.51-1.19
		c1.09-0.79,1.64-1.79,1.64-3c0-1.02-0.39-1.84-1.17-2.44c-0.78-0.6-2.14-1.11-4.08-1.54l-5.99-1.27c-3.39-0.71-5.91-1.92-7.55-3.63
		s-2.46-3.97-2.46-6.76c0-1.77,0.37-3.37,1.11-4.82c0.74-1.45,1.78-2.7,3.13-3.76c1.34-1.06,2.94-1.87,4.8-2.44
		c1.85-0.56,3.9-0.85,6.12-0.85c1.98,0,3.92,0.24,5.83,0.72c1.91,0.48,3.59,1.17,5.04,2.09c0.71,0.42,1.19,0.96,1.46,1.62
		c0.27,0.65,0.35,1.31,0.27,1.96c-0.09,0.65-0.35,1.23-0.79,1.72c-0.44,0.5-1,0.81-1.67,0.95c-0.67,0.14-1.48-0.02-2.44-0.48
		c-1.17-0.6-2.4-1.04-3.71-1.32c-1.31-0.28-2.65-0.42-4.03-0.42c-1.48,0-2.75,0.2-3.79,0.58c-1.04,0.39-1.84,0.94-2.38,1.64
		c-0.55,0.71-0.82,1.52-0.82,2.44c0,1.03,0.37,1.86,1.11,2.49c0.74,0.64,2.03,1.15,3.87,1.54l5.99,1.27
		c3.46,0.74,6.04,1.93,7.74,3.58c1.7,1.64,2.54,3.81,2.54,6.49c0,1.77-0.35,3.37-1.06,4.8c-0.71,1.43-1.73,2.66-3.07,3.68
		c-1.34,1.02-2.95,1.81-4.82,2.36C-308.24,247.42-310.34,247.69-312.67,247.69z"/>
	<path class="st1" d="M-274.56,247.69c-4.03,0-7.47-0.79-10.33-2.38c-2.86-1.59-5.06-3.82-6.6-6.71c-1.54-2.88-2.31-6.28-2.31-10.2
		c0-2.93,0.43-5.57,1.3-7.92c0.87-2.35,2.13-4.36,3.79-6.04c1.66-1.68,3.68-2.98,6.07-3.89c2.38-0.92,5.08-1.38,8.08-1.38
		c1.77,0,3.56,0.22,5.38,0.66c1.82,0.44,3.4,1.07,4.74,1.88c0.88,0.5,1.48,1.11,1.8,1.85s0.42,1.48,0.29,2.23
		c-0.12,0.74-0.42,1.38-0.9,1.91s-1.07,0.87-1.78,1.01c-0.71,0.14-1.5-0.02-2.39-0.48c-1.06-0.64-2.17-1.09-3.34-1.38
		c-1.17-0.28-2.35-0.42-3.55-0.42c-2.37,0-4.35,0.47-5.96,1.4c-1.61,0.94-2.82,2.29-3.63,4.05c-0.81,1.77-1.22,3.94-1.22,6.52
		c0,2.54,0.41,4.72,1.22,6.52c0.81,1.8,2.02,3.17,3.63,4.11c1.61,0.94,3.6,1.4,5.96,1.4c1.13,0,2.29-0.14,3.47-0.42
		c1.18-0.28,2.32-0.72,3.42-1.33c0.92-0.46,1.74-0.63,2.46-0.5c0.72,0.12,1.33,0.44,1.8,0.95c0.48,0.51,0.78,1.12,0.9,1.83
		c0.12,0.71,0.04,1.41-0.24,2.12c-0.28,0.71-0.81,1.31-1.59,1.8c-1.31,0.88-2.92,1.57-4.82,2.07
		C-270.8,247.44-272.69,247.69-274.56,247.69z"/>
	<path class="st1" d="M-241.02,247.69c-3.68,0-6.9-0.8-9.67-2.41c-2.77-1.61-4.93-3.86-6.47-6.76c-1.54-2.9-2.31-6.27-2.31-10.12
		c0-2.93,0.43-5.57,1.3-7.92c0.87-2.35,2.11-4.36,3.74-6.04c1.62-1.68,3.58-2.98,5.86-3.89s4.8-1.38,7.55-1.38
		c3.74,0,7,0.8,9.75,2.39c2.76,1.59,4.9,3.82,6.44,6.7c1.54,2.88,2.31,6.25,2.31,10.1c0,2.93-0.44,5.58-1.32,7.95
		c-0.88,2.37-2.14,4.4-3.76,6.09c-1.63,1.7-3.57,3-5.83,3.92C-235.7,247.23-238.22,247.69-241.02,247.69z M-241.02,240.69
		c2.08,0,3.86-0.49,5.33-1.46c1.47-0.97,2.6-2.39,3.39-4.24c0.79-1.86,1.19-4.05,1.19-6.6c0-3.89-0.87-6.9-2.6-9.04
		c-1.73-2.14-4.17-3.21-7.31-3.21c-2.05,0-3.82,0.48-5.3,1.43c-1.48,0.95-2.62,2.35-3.39,4.19c-0.78,1.84-1.17,4.05-1.17,6.63
		c0,3.85,0.87,6.86,2.6,9.04C-246.55,239.61-244.13,240.69-241.02,240.69z"/>
	<path class="st1" d="M-212.66,247.58c-1.34,0-2.37-0.37-3.07-1.11c-0.71-0.74-1.06-1.78-1.06-3.13v-29.42
		c0-1.38,0.36-2.42,1.09-3.13c0.72-0.71,1.76-1.06,3.1-1.06h12.88c4.17,0,7.38,1.01,9.65,3.02c2.26,2.01,3.39,4.82,3.39,8.43
		c0,2.33-0.51,4.35-1.54,6.04c-1.03,1.7-2.5,3-4.43,3.92c-1.93,0.92-4.28,1.38-7.08,1.38l0.42-0.9h2.17c1.48,0,2.78,0.36,3.9,1.09
		c1.11,0.72,2.08,1.83,2.89,3.31l3.29,6.09c0.49,0.88,0.72,1.75,0.69,2.6c-0.04,0.85-0.35,1.54-0.95,2.07
		c-0.6,0.53-1.48,0.79-2.65,0.79s-2.11-0.25-2.84-0.74c-0.72-0.5-1.37-1.25-1.93-2.28l-5.09-9.38c-0.53-0.99-1.18-1.66-1.93-2.01
		c-0.76-0.35-1.69-0.53-2.78-0.53h-4.03v10.71c0,1.34-0.34,2.38-1.03,3.13S-211.32,247.58-212.66,247.58z M-208.58,226.7h7.37
		c2.19,0,3.84-0.44,4.96-1.33c1.11-0.88,1.67-2.21,1.67-3.97c0-1.73-0.56-3.04-1.67-3.92c-1.11-0.88-2.77-1.33-4.96-1.33h-7.37
		V226.7z"/>
	<path class="st1" d="M-176.25,247.11c-1.38,0-2.44-0.37-3.18-1.11s-1.11-1.8-1.11-3.18v-28.78c0-1.38,0.37-2.44,1.11-3.18
		s1.8-1.11,3.18-1.11h18.5c1.06,0,1.86,0.27,2.41,0.82c0.55,0.55,0.82,1.33,0.82,2.36c0,1.06-0.27,1.86-0.82,2.41
		c-0.55,0.55-1.35,0.82-2.41,0.82h-14.95v8.75h13.73c1.09,0,1.92,0.27,2.46,0.82c0.55,0.55,0.82,1.35,0.82,2.41
		c0,1.06-0.27,1.86-0.82,2.41c-0.55,0.55-1.37,0.82-2.46,0.82h-13.73v9.33h14.95c1.06,0,1.86,0.27,2.41,0.82
		c0.55,0.55,0.82,1.33,0.82,2.36c0,1.06-0.27,1.86-0.82,2.41c-0.55,0.55-1.35,0.82-2.41,0.82H-176.25z"/>
</g>
<g>
	<path class="st0" d="M-280.79-133.51c-1.43,0-2.88-0.11-4.36-0.33c-1.48-0.22-2.89-0.54-4.23-0.94c-1.34-0.41-2.54-0.92-3.6-1.53
		c-0.75-0.41-1.28-0.94-1.58-1.61c-0.31-0.66-0.42-1.33-0.33-2.01c0.08-0.68,0.34-1.28,0.77-1.81c0.42-0.53,0.97-0.87,1.63-1.02
		c0.66-0.15,1.4-0.03,2.22,0.38c1.39,0.78,2.92,1.36,4.56,1.73c1.65,0.37,3.29,0.56,4.92,0.56c2.48,0,4.25-0.38,5.3-1.15
		c1.05-0.77,1.58-1.73,1.58-2.88c0-0.99-0.37-1.77-1.12-2.35c-0.75-0.58-2.06-1.07-3.93-1.48l-5.76-1.22
		c-3.26-0.68-5.69-1.84-7.27-3.49c-1.58-1.65-2.37-3.82-2.37-6.5c0-1.7,0.36-3.25,1.07-4.64c0.71-1.39,1.72-2.6,3.01-3.62
		c1.29-1.02,2.83-1.8,4.62-2.35c1.79-0.54,3.75-0.82,5.89-0.82c1.9,0,3.77,0.23,5.61,0.69s3.45,1.13,4.85,2.01
		c0.68,0.41,1.15,0.93,1.4,1.56c0.25,0.63,0.34,1.26,0.25,1.89c-0.09,0.63-0.34,1.18-0.77,1.66c-0.43,0.48-0.96,0.78-1.61,0.92
		c-0.65,0.14-1.43-0.02-2.35-0.46c-1.12-0.58-2.31-1-3.57-1.27c-1.26-0.27-2.55-0.41-3.88-0.41c-1.43,0-2.64,0.19-3.65,0.56
		c-1,0.37-1.77,0.9-2.29,1.58c-0.53,0.68-0.79,1.46-0.79,2.35c0,0.99,0.36,1.79,1.07,2.4c0.71,0.61,1.96,1.1,3.72,1.48l5.76,1.22
		c3.33,0.71,5.81,1.86,7.45,3.44c1.63,1.58,2.45,3.66,2.45,6.25c0,1.7-0.34,3.24-1.02,4.62c-0.68,1.38-1.67,2.56-2.96,3.54
		c-1.29,0.99-2.84,1.74-4.64,2.27C-276.52-133.78-278.54-133.51-280.79-133.51z"/>
	<path class="st0" d="M-248.96-133.62c-1.09,0-1.97-0.26-2.65-0.79s-1.22-1.33-1.63-2.42l-10.3-28.97c-0.44-1.29-0.35-2.4,0.28-3.31
		c0.63-0.92,1.73-1.38,3.29-1.38c1.09,0,1.93,0.25,2.52,0.77c0.59,0.51,1.08,1.31,1.45,2.4l8.42,25.04h-2.19l8.87-24.99
		c0.41-1.09,0.91-1.9,1.5-2.42c0.59-0.53,1.38-0.79,2.37-0.79c0.95,0,1.72,0.26,2.29,0.79c0.58,0.53,1.07,1.35,1.48,2.47l8.47,24.94
		h-1.89l8.57-25.04c0.34-1.05,0.82-1.84,1.43-2.37c0.61-0.53,1.44-0.79,2.5-0.79c1.33,0,2.29,0.46,2.91,1.38
		c0.61,0.92,0.68,2.02,0.2,3.31l-10.4,29.02c-0.37,1.05-0.88,1.84-1.53,2.37c-0.65,0.53-1.53,0.79-2.65,0.79
		c-1.09,0-1.96-0.26-2.6-0.79c-0.65-0.53-1.17-1.33-1.58-2.42l-8.06-22.8h1.22l-8.16,22.85c-0.41,1.05-0.93,1.84-1.56,2.37
		C-247.02-133.88-247.87-133.62-248.96-133.62z"/>
	<path class="st0" d="M-207.96-133.62c-0.95,0-1.73-0.22-2.32-0.66c-0.6-0.44-0.97-1.04-1.12-1.78c-0.15-0.75-0.01-1.58,0.43-2.5
		l13.06-28.61c0.54-1.16,1.19-2,1.94-2.52c0.75-0.53,1.61-0.79,2.6-0.79c0.99,0,1.85,0.26,2.6,0.79c0.75,0.53,1.38,1.37,1.89,2.52
		l13.16,28.61c0.44,0.92,0.6,1.76,0.48,2.52c-0.12,0.76-0.47,1.36-1.05,1.78c-0.58,0.42-1.33,0.64-2.24,0.64
		c-1.16,0-2.05-0.27-2.68-0.82c-0.63-0.54-1.18-1.39-1.66-2.55l-3.06-7.09l3.16,2.19h-21.27l3.16-2.19l-3.01,7.09
		c-0.51,1.19-1.05,2.05-1.61,2.58C-206.04-133.88-206.87-133.62-207.96-133.62z M-193.47-161.61l-6.53,15.56l-1.38-1.99h15.96
		l-1.38,1.99l-6.58-15.56H-193.47z"/>
	<path class="st0" d="M-167.21-133.62c-1.29,0-2.28-0.36-2.96-1.07c-0.68-0.71-1.02-1.72-1.02-3.01V-166c0-1.33,0.35-2.33,1.05-3.01
		c0.7-0.68,1.69-1.02,2.98-1.02h12.39c4.01,0,7.11,1.01,9.28,3.03c2.17,2.02,3.26,4.84,3.26,8.44c0,3.6-1.09,6.43-3.26,8.47
		c-2.18,2.04-5.27,3.06-9.28,3.06h-8.52v9.33c0,1.29-0.33,2.29-0.99,3.01C-164.94-133.97-165.92-133.62-167.21-133.62z
		 M-163.28-153.15h7.19c2.04,0,3.6-0.46,4.67-1.38c1.07-0.92,1.61-2.26,1.61-4.03c0-1.77-0.54-3.09-1.61-3.98
		c-1.07-0.88-2.63-1.33-4.67-1.33h-7.19V-153.15z"/>
	<path class="st0" d="M-303.84-72.51c-1.43,0-2.88-0.11-4.36-0.33c-1.48-0.22-2.89-0.54-4.23-0.94c-1.34-0.41-2.54-0.92-3.6-1.53
		c-0.75-0.41-1.28-0.94-1.58-1.61c-0.31-0.66-0.42-1.33-0.33-2.01c0.08-0.68,0.34-1.28,0.77-1.81c0.42-0.53,0.97-0.87,1.63-1.02
		c0.66-0.15,1.4-0.03,2.22,0.38c1.39,0.78,2.92,1.36,4.56,1.73c1.65,0.38,3.29,0.56,4.92,0.56c2.48,0,4.25-0.38,5.3-1.15
		c1.05-0.77,1.58-1.73,1.58-2.88c0-0.99-0.37-1.77-1.12-2.35c-0.75-0.58-2.06-1.07-3.93-1.48l-5.76-1.22
		c-3.26-0.68-5.69-1.84-7.27-3.49c-1.58-1.65-2.37-3.82-2.37-6.5c0-1.7,0.36-3.25,1.07-4.64c0.71-1.39,1.72-2.6,3.01-3.62
		c1.29-1.02,2.83-1.8,4.62-2.35c1.79-0.54,3.75-0.82,5.89-0.82c1.9,0,3.77,0.23,5.61,0.69c1.84,0.46,3.45,1.13,4.85,2.01
		c0.68,0.41,1.15,0.93,1.4,1.56c0.25,0.63,0.34,1.26,0.25,1.89c-0.09,0.63-0.34,1.18-0.77,1.66c-0.43,0.48-0.96,0.78-1.61,0.92
		c-0.65,0.14-1.43-0.02-2.35-0.46c-1.12-0.58-2.31-1-3.57-1.28c-1.26-0.27-2.55-0.41-3.88-0.41c-1.43,0-2.64,0.19-3.65,0.56
		c-1,0.37-1.77,0.9-2.29,1.58c-0.53,0.68-0.79,1.46-0.79,2.35c0,0.99,0.36,1.79,1.07,2.4c0.71,0.61,1.96,1.11,3.72,1.48l5.76,1.22
		c3.33,0.71,5.81,1.86,7.45,3.44c1.63,1.58,2.45,3.66,2.45,6.25c0,1.7-0.34,3.24-1.02,4.62c-0.68,1.38-1.67,2.56-2.96,3.54
		c-1.29,0.99-2.84,1.74-4.64,2.27C-299.57-72.78-301.59-72.51-303.84-72.51z"/>
	<path class="st0" d="M-267.17-72.51c-3.88,0-7.19-0.76-9.94-2.29c-2.75-1.53-4.87-3.68-6.35-6.45c-1.48-2.77-2.22-6.04-2.22-9.82
		c0-2.82,0.42-5.36,1.25-7.63c0.83-2.26,2.05-4.2,3.65-5.81c1.6-1.61,3.54-2.86,5.84-3.75c2.29-0.88,4.89-1.33,7.78-1.33
		c1.7,0,3.42,0.21,5.18,0.64c1.75,0.43,3.27,1.03,4.56,1.81c0.85,0.48,1.43,1.07,1.73,1.79s0.4,1.43,0.28,2.14
		c-0.12,0.71-0.41,1.33-0.87,1.84c-0.46,0.51-1.03,0.83-1.71,0.97c-0.68,0.14-1.45-0.02-2.29-0.46c-1.02-0.61-2.09-1.05-3.21-1.33
		c-1.12-0.27-2.26-0.41-3.42-0.41c-2.28,0-4.19,0.45-5.74,1.35c-1.55,0.9-2.71,2.2-3.49,3.9c-0.78,1.7-1.17,3.79-1.17,6.27
		c0,2.45,0.39,4.54,1.17,6.27c0.78,1.73,1.95,3.05,3.49,3.95c1.55,0.9,3.46,1.35,5.74,1.35c1.09,0,2.2-0.14,3.34-0.41
		c1.14-0.27,2.23-0.7,3.29-1.28c0.88-0.44,1.67-0.6,2.37-0.48c0.7,0.12,1.28,0.43,1.73,0.92c0.46,0.49,0.75,1.08,0.87,1.76
		c0.12,0.68,0.04,1.36-0.23,2.04c-0.27,0.68-0.78,1.26-1.53,1.73c-1.26,0.85-2.81,1.51-4.64,1.99S-265.37-72.51-267.17-72.51z"/>
	<path class="st0" d="M-234.89-72.51c-3.54,0-6.64-0.77-9.31-2.32c-2.67-1.55-4.74-3.71-6.22-6.5s-2.22-6.04-2.22-9.74
		c0-2.82,0.42-5.36,1.25-7.63c0.83-2.26,2.03-4.2,3.6-5.81c1.56-1.61,3.44-2.86,5.64-3.75c2.19-0.88,4.62-1.33,7.27-1.33
		c3.6,0,6.73,0.76,9.38,2.29c2.65,1.53,4.72,3.68,6.2,6.45c1.48,2.77,2.22,6.01,2.22,9.72c0,2.82-0.43,5.37-1.28,7.65
		c-0.85,2.28-2.06,4.23-3.62,5.87c-1.56,1.63-3.43,2.89-5.61,3.77C-229.77-72.96-232.2-72.51-234.89-72.51z M-234.89-79.25
		c2.01,0,3.71-0.47,5.13-1.4c1.41-0.93,2.5-2.29,3.26-4.08s1.15-3.9,1.15-6.35c0-3.74-0.83-6.64-2.5-8.7
		c-1.67-2.06-4.01-3.09-7.04-3.09c-1.97,0-3.67,0.46-5.1,1.38c-1.43,0.92-2.52,2.26-3.26,4.03c-0.75,1.77-1.12,3.89-1.12,6.38
		c0,3.71,0.83,6.6,2.5,8.7C-240.21-80.29-237.88-79.25-234.89-79.25z"/>
	<path class="st0" d="M-207.6-72.62c-1.29,0-2.28-0.36-2.96-1.07c-0.68-0.71-1.02-1.72-1.02-3.01V-105c0-1.33,0.35-2.33,1.05-3.01
		c0.7-0.68,1.69-1.02,2.98-1.02h12.39c4.01,0,7.11,0.97,9.28,2.91c2.18,1.94,3.26,4.64,3.26,8.11c0,2.24-0.49,4.18-1.48,5.81
		c-0.99,1.63-2.41,2.89-4.26,3.77c-1.85,0.88-4.12,1.33-6.81,1.33l0.41-0.87h2.09c1.43,0,2.68,0.35,3.75,1.04
		c1.07,0.7,2,1.76,2.78,3.19l3.16,5.87c0.48,0.85,0.7,1.68,0.66,2.5c-0.03,0.82-0.34,1.48-0.92,1.99c-0.58,0.51-1.43,0.76-2.55,0.76
		c-1.12,0-2.03-0.24-2.73-0.71c-0.7-0.48-1.32-1.21-1.86-2.19l-4.9-9.03c-0.51-0.95-1.13-1.6-1.86-1.94
		c-0.73-0.34-1.62-0.51-2.68-0.51h-3.88v10.3c0,1.29-0.33,2.29-0.99,3.01C-205.33-72.97-206.31-72.62-207.6-72.62z M-203.67-92.71
		h7.09c2.11,0,3.7-0.42,4.77-1.28c1.07-0.85,1.61-2.12,1.61-3.83c0-1.67-0.54-2.92-1.61-3.77c-1.07-0.85-2.66-1.28-4.77-1.28h-7.09
		V-92.71z"/>
	<path class="st0" d="M-172.56-73.07c-1.33,0-2.35-0.36-3.06-1.07s-1.07-1.73-1.07-3.06v-27.69c0-1.33,0.36-2.35,1.07-3.06
		s1.73-1.07,3.06-1.07h17.8c1.02,0,1.79,0.26,2.32,0.79s0.79,1.28,0.79,2.27c0,1.02-0.26,1.79-0.79,2.32s-1.3,0.79-2.32,0.79h-14.38
		v8.42h13.21c1.05,0,1.84,0.26,2.37,0.79s0.79,1.3,0.79,2.32c0,1.02-0.26,1.79-0.79,2.32c-0.53,0.53-1.32,0.79-2.37,0.79h-13.21
		v8.98h14.38c1.02,0,1.79,0.26,2.32,0.79c0.53,0.53,0.79,1.28,0.79,2.27c0,1.02-0.26,1.79-0.79,2.32s-1.3,0.79-2.32,0.79H-172.56z"
		/>
	<path class="st0" d="M-134.11-72.51c-1.43,0-2.88-0.11-4.36-0.33c-1.48-0.22-2.89-0.54-4.23-0.94c-1.34-0.41-2.54-0.92-3.6-1.53
		c-0.75-0.41-1.28-0.94-1.58-1.61s-0.42-1.33-0.33-2.01c0.08-0.68,0.34-1.28,0.77-1.81c0.42-0.53,0.97-0.87,1.63-1.02
		c0.66-0.15,1.4-0.03,2.22,0.38c1.39,0.78,2.92,1.36,4.56,1.73c1.65,0.38,3.29,0.56,4.92,0.56c2.48,0,4.25-0.38,5.3-1.15
		c1.05-0.77,1.58-1.73,1.58-2.88c0-0.99-0.38-1.77-1.12-2.35c-0.75-0.58-2.06-1.07-3.93-1.48l-5.76-1.22
		c-3.26-0.68-5.69-1.84-7.27-3.49c-1.58-1.65-2.37-3.82-2.37-6.5c0-1.7,0.36-3.25,1.07-4.64c0.71-1.39,1.72-2.6,3.01-3.62
		c1.29-1.02,2.83-1.8,4.62-2.35c1.79-0.54,3.75-0.82,5.89-0.82c1.9,0,3.77,0.23,5.61,0.69c1.84,0.46,3.45,1.13,4.85,2.01
		c0.68,0.41,1.15,0.93,1.4,1.56c0.25,0.63,0.34,1.26,0.25,1.89s-0.34,1.18-0.76,1.66c-0.43,0.48-0.96,0.78-1.61,0.92
		c-0.65,0.14-1.43-0.02-2.35-0.46c-1.12-0.58-2.31-1-3.57-1.28c-1.26-0.27-2.55-0.41-3.88-0.41c-1.43,0-2.64,0.19-3.65,0.56
		c-1,0.37-1.77,0.9-2.29,1.58c-0.53,0.68-0.79,1.46-0.79,2.35c0,0.99,0.36,1.79,1.07,2.4c0.71,0.61,1.95,1.11,3.72,1.48l5.76,1.22
		c3.33,0.71,5.81,1.86,7.45,3.44s2.45,3.66,2.45,6.25c0,1.7-0.34,3.24-1.02,4.62c-0.68,1.38-1.67,2.56-2.96,3.54
		c-1.29,0.99-2.84,1.74-4.64,2.27C-129.84-72.78-131.87-72.51-134.11-72.51z"/>
</g>
<g id="_x31_">
	<circle class="st1" cx="22.5" cy="177.5" r="22.5"/>
</g>
<g id="_x31__1_">
	<circle class="st1" cx="177.5" cy="22.5" r="22.5"/>
</g>
<g id="_x31__2_">
	<circle class="st1" cx="100" cy="100" r="22.5"/>
</g>
</svg>
