<?xml version="1.0" encoding="utf-8"?>
<!-- Generator: Adobe Illustrator 24.0.1, SVG Export Plug-In . SVG Version: 6.00 Build 0)  -->
<svg version="1.1" id="Vrstva_1" xmlns="http://www.w3.org/2000/svg" xmlns:xlink="http://www.w3.org/1999/xlink" x="0px" y="0px"
	 viewBox="0 0 200 200" style="enable-background:new 0 0 200 200;" xml:space="preserve">
<style type="text/css">
	.st0{fill:#22262A;}
</style>
<g>
	<path class="st0" d="M14.64,81.41c-2.07,0-3.82-0.7-5.27-2.11C7.92,77.9,7.2,76.17,7.2,74.1c0-2.15,0.72-3.93,2.17-5.33
		c1.45-1.41,3.2-2.11,5.27-2.11h25.54c2.07,0,3.82,0.7,5.27,2.11c1.45,1.41,2.17,3.18,2.17,5.33c0,2.07-0.72,3.8-2.17,5.21
		c-1.45,1.41-3.2,2.11-5.27,2.11H14.64z"/>
	<path class="st0" d="M88.29,108.69c-4.38,0-8.83-0.52-13.33-1.55c-4.51-1.03-8.41-2.5-11.72-4.4c-2.15-1.16-3.62-2.54-4.4-4.15
		c-0.79-1.61-1.08-3.2-0.87-4.77c0.21-1.57,0.85-2.96,1.92-4.15c1.07-1.2,2.46-1.96,4.15-2.29c1.69-0.33,3.57,0,5.64,0.99
		c3.22,1.57,6.28,2.69,9.18,3.35c2.89,0.66,5.79,0.99,8.68,0.99c3.31,0,6.08-0.43,8.31-1.3c2.23-0.87,3.93-2.13,5.08-3.78
		c1.16-1.65,1.74-3.72,1.74-6.2c0-3.47-1.2-6.08-3.6-7.81c-2.4-1.74-5.91-2.6-10.54-2.6h-7.32c-2.73,0-4.82-0.68-6.26-2.05
		c-1.45-1.36-2.17-3.24-2.17-5.64c0-2.48,0.72-4.4,2.17-5.77c1.45-1.36,3.53-2.05,6.26-2.05h5.46c2.81,0,5.19-0.43,7.13-1.3
		c1.94-0.87,3.47-2.09,4.59-3.66c1.12-1.57,1.67-3.51,1.67-5.83c0-3.3-1.14-5.83-3.41-7.56c-2.27-1.74-5.56-2.6-9.86-2.6
		c-2.65,0-5.25,0.31-7.81,0.93c-2.56,0.62-5.33,1.72-8.31,3.29c-1.82,0.91-3.51,1.2-5.08,0.87c-1.57-0.33-2.87-1.07-3.91-2.23
		c-1.03-1.16-1.7-2.5-1.98-4.03c-0.29-1.53-0.08-3.08,0.62-4.65c0.7-1.57,2-2.85,3.91-3.84c3.55-2.07,7.42-3.64,11.59-4.71
		c4.17-1.07,8.41-1.61,12.71-1.61c6.28,0,11.66,0.95,16.12,2.85c4.46,1.9,7.89,4.61,10.29,8.12c2.4,3.51,3.6,7.75,3.6,12.71
		c0,3.39-0.66,6.49-1.98,9.3c-1.32,2.81-3.16,5.19-5.52,7.13c-2.36,1.94-5.23,3.33-8.62,4.15V61.2c5.87,0.99,10.46,3.43,13.76,7.32
		c3.31,3.89,4.96,8.76,4.96,14.63c0,5.21-1.32,9.73-3.97,13.58c-2.65,3.84-6.43,6.8-11.35,8.87
		C100.92,107.66,95.07,108.69,88.29,108.69z"/>
	<path class="st0" d="M163.31,108.69c-10.58,0-18.66-3.95-24.24-11.84c-5.58-7.89-8.37-19.08-8.37-33.54
		c0-9.67,1.26-17.83,3.78-24.49c2.52-6.65,6.2-11.7,11.04-15.13c4.84-3.43,10.77-5.15,17.79-5.15c10.66,0,18.76,3.83,24.3,11.47
		c5.54,7.65,8.31,18.75,8.31,33.29c0,9.67-1.26,17.88-3.78,24.61c-2.52,6.74-6.18,11.88-10.97,15.44
		C176.37,106.92,170.42,108.69,163.31,108.69z M163.31,93.07c4.79,0,8.35-2.38,10.66-7.13c2.31-4.75,3.47-12.3,3.47-22.63
		c0-10.33-1.16-17.77-3.47-22.32c-2.32-4.54-5.87-6.82-10.66-6.82c-4.79,0-8.35,2.28-10.66,6.82c-2.32,4.55-3.47,11.99-3.47,22.32
		c0,10.33,1.16,17.88,3.47,22.63C154.96,90.7,158.51,93.07,163.31,93.07z"/>
	<path class="st0" d="M19.2,166.99c-1.68,0-3.39-0.13-5.13-0.39s-3.4-0.63-4.98-1.11c-1.58-0.48-2.99-1.08-4.23-1.8
		c-0.88-0.48-1.5-1.11-1.86-1.89c-0.36-0.78-0.49-1.57-0.39-2.37c0.1-0.8,0.4-1.51,0.9-2.13c0.5-0.62,1.14-1.02,1.92-1.2
		c0.78-0.18,1.65-0.03,2.61,0.45c1.64,0.92,3.43,1.6,5.37,2.04c1.94,0.44,3.87,0.66,5.79,0.66c2.92,0,5-0.45,6.24-1.35
		c1.24-0.9,1.86-2.03,1.86-3.39c0-1.16-0.44-2.08-1.32-2.76c-0.88-0.68-2.42-1.26-4.62-1.74l-6.78-1.44
		c-3.84-0.8-6.69-2.17-8.55-4.11c-1.86-1.94-2.79-4.49-2.79-7.65c0-2,0.42-3.82,1.26-5.46c0.84-1.64,2.02-3.06,3.54-4.26
		c1.52-1.2,3.33-2.12,5.43-2.76s4.41-0.96,6.93-0.96c2.24,0,4.44,0.27,6.6,0.81c2.16,0.54,4.06,1.33,5.7,2.37
		c0.8,0.48,1.35,1.09,1.65,1.83c0.3,0.74,0.4,1.48,0.3,2.22c-0.1,0.74-0.4,1.39-0.9,1.95c-0.5,0.56-1.13,0.92-1.89,1.08
		c-0.76,0.16-1.68-0.02-2.76-0.54c-1.32-0.68-2.72-1.18-4.2-1.5c-1.48-0.32-3-0.48-4.56-0.48c-1.68,0-3.11,0.22-4.29,0.66
		c-1.18,0.44-2.08,1.06-2.7,1.86c-0.62,0.8-0.93,1.72-0.93,2.76c0,1.16,0.42,2.1,1.26,2.82c0.84,0.72,2.3,1.3,4.38,1.74l6.78,1.44
		c3.92,0.84,6.84,2.19,8.76,4.05c1.92,1.86,2.88,4.31,2.88,7.35c0,2-0.4,3.81-1.2,5.43c-0.8,1.62-1.96,3.01-3.48,4.17
		c-1.52,1.16-3.34,2.05-5.46,2.67C24.22,166.68,21.84,166.99,19.2,166.99z"/>
	<path class="st0" d="M62.34,166.99c-4.56,0-8.46-0.9-11.7-2.7c-3.24-1.8-5.73-4.33-7.47-7.59c-1.74-3.26-2.61-7.11-2.61-11.55
		c0-3.32,0.49-6.31,1.47-8.97c0.98-2.66,2.41-4.94,4.29-6.84c1.88-1.9,4.17-3.37,6.87-4.41c2.7-1.04,5.75-1.56,9.15-1.56
		c2,0,4.03,0.25,6.09,0.75c2.06,0.5,3.85,1.21,5.37,2.13c1,0.56,1.68,1.26,2.04,2.1c0.36,0.84,0.47,1.68,0.33,2.52
		c-0.14,0.84-0.48,1.56-1.02,2.16c-0.54,0.6-1.21,0.98-2.01,1.14c-0.8,0.16-1.7-0.02-2.7-0.54c-1.2-0.72-2.46-1.24-3.78-1.56
		c-1.32-0.32-2.66-0.48-4.02-0.48c-2.68,0-4.93,0.53-6.75,1.59c-1.82,1.06-3.19,2.59-4.11,4.59c-0.92,2-1.38,4.46-1.38,7.38
		c0,2.88,0.46,5.34,1.38,7.38c0.92,2.04,2.29,3.59,4.11,4.65c1.82,1.06,4.07,1.59,6.75,1.59c1.28,0,2.59-0.16,3.93-0.48
		c1.34-0.32,2.63-0.82,3.87-1.5c1.04-0.52,1.97-0.71,2.79-0.57c0.82,0.14,1.5,0.5,2.04,1.08c0.54,0.58,0.88,1.27,1.02,2.07
		c0.14,0.8,0.05,1.6-0.27,2.4c-0.32,0.8-0.92,1.48-1.8,2.04c-1.48,1-3.3,1.78-5.46,2.34C66.6,166.71,64.46,166.99,62.34,166.99z"/>
	<path class="st0" d="M100.32,166.99c-4.16,0-7.81-0.91-10.95-2.73c-3.14-1.82-5.58-4.37-7.32-7.65c-1.74-3.28-2.61-7.1-2.61-11.46
		c0-3.32,0.49-6.31,1.47-8.97c0.98-2.66,2.39-4.94,4.23-6.84c1.84-1.9,4.05-3.37,6.63-4.41c2.58-1.04,5.43-1.56,8.55-1.56
		c4.24,0,7.92,0.9,11.04,2.7c3.12,1.8,5.55,4.33,7.29,7.59c1.74,3.26,2.61,7.07,2.61,11.43c0,3.32-0.5,6.32-1.5,9
		c-1,2.68-2.42,4.98-4.26,6.9s-4.04,3.4-6.6,4.44C106.34,166.47,103.48,166.99,100.32,166.99z M100.32,159.07
		c2.36,0,4.37-0.55,6.03-1.65c1.66-1.1,2.94-2.7,3.84-4.8c0.9-2.1,1.35-4.59,1.35-7.47c0-4.4-0.98-7.81-2.94-10.23
		c-1.96-2.42-4.72-3.63-8.28-3.63c-2.32,0-4.32,0.54-6,1.62c-1.68,1.08-2.96,2.66-3.84,4.74c-0.88,2.08-1.32,4.58-1.32,7.5
		c0,4.36,0.98,7.77,2.94,10.23C94.06,157.84,96.8,159.07,100.32,159.07z"/>
	<path class="st0" d="M132.42,166.87c-1.52,0-2.68-0.42-3.48-1.26c-0.8-0.84-1.2-2.02-1.2-3.54v-33.3c0-1.56,0.41-2.74,1.23-3.54
		c0.82-0.8,1.99-1.2,3.51-1.2h14.58c4.72,0,8.36,1.14,10.92,3.42c2.56,2.28,3.84,5.46,3.84,9.54c0,2.64-0.58,4.92-1.74,6.84
		c-1.16,1.92-2.83,3.4-5.01,4.44c-2.18,1.04-4.85,1.56-8.01,1.56l0.48-1.02H150c1.68,0,3.15,0.41,4.41,1.23
		c1.26,0.82,2.35,2.07,3.27,3.75l3.72,6.9c0.56,1,0.82,1.98,0.78,2.94c-0.04,0.96-0.4,1.74-1.08,2.34c-0.68,0.6-1.68,0.9-3,0.9
		s-2.39-0.28-3.21-0.84c-0.82-0.56-1.55-1.42-2.19-2.58l-5.76-10.62c-0.6-1.12-1.33-1.88-2.19-2.28c-0.86-0.4-1.91-0.6-3.15-0.6
		h-4.56v12.12c0,1.52-0.39,2.7-1.17,3.54C135.09,166.45,133.94,166.87,132.42,166.87z M137.04,143.23h8.34c2.48,0,4.35-0.5,5.61-1.5
		c1.26-1,1.89-2.5,1.89-4.5c0-1.96-0.63-3.44-1.89-4.44c-1.26-1-3.13-1.5-5.61-1.5h-8.34V143.23z"/>
	<path class="st0" d="M173.64,166.33c-1.56,0-2.76-0.42-3.6-1.26c-0.84-0.84-1.26-2.04-1.26-3.6v-32.58c0-1.56,0.42-2.76,1.26-3.6
		c0.84-0.84,2.04-1.26,3.6-1.26h20.94c1.2,0,2.11,0.31,2.73,0.93c0.62,0.62,0.93,1.51,0.93,2.67c0,1.2-0.31,2.11-0.93,2.73
		c-0.62,0.62-1.53,0.93-2.73,0.93h-16.92v9.9h15.54c1.24,0,2.17,0.31,2.79,0.93s0.93,1.53,0.93,2.73c0,1.2-0.31,2.11-0.93,2.73
		c-0.62,0.62-1.55,0.93-2.79,0.93h-15.54v10.56h16.92c1.2,0,2.11,0.31,2.73,0.93c0.62,0.62,0.93,1.51,0.93,2.67
		c0,1.2-0.31,2.11-0.93,2.73c-0.62,0.62-1.53,0.93-2.73,0.93H173.64z"/>
</g>
</svg>
