<?xml version="1.0" encoding="utf-8"?>
<!-- Generator: Adobe Illustrator 24.0.1, SVG Export Plug-In . SVG Version: 6.00 Build 0)  -->
<svg version="1.1" id="Vrstva_1" xmlns="http://www.w3.org/2000/svg" xmlns:xlink="http://www.w3.org/1999/xlink" x="0px" y="0px"
	 viewBox="0 0 200 200" style="enable-background:new 0 0 200 200;" xml:space="preserve">
<style type="text/css">
	.st0{fill:#22262A;}
</style>
<g>
	<path class="st0" d="M28.46,85.59c-1.73,0-3.21-0.59-4.42-1.77c-1.21-1.18-1.82-2.63-1.82-4.37c0-1.8,0.61-3.29,1.82-4.47
		c1.21-1.18,2.69-1.77,4.42-1.77h21.42c1.73,0,3.21,0.59,4.42,1.77c1.21,1.18,1.82,2.67,1.82,4.47c0,1.73-0.61,3.19-1.82,4.37
		c-1.21,1.18-2.69,1.77-4.42,1.77H28.46z"/>
	<path class="st0" d="M75.15,107.33c-2.57,0-4.46-0.61-5.67-1.82c-1.21-1.21-1.82-3-1.82-5.36c0-1.52,0.38-2.95,1.14-4.26
		c0.76-1.32,1.8-2.67,3.12-4.06l19.55-20.59c2.91-3.12,5.01-5.89,6.29-8.32c1.28-2.43,1.92-4.85,1.92-7.28
		c0-3.05-0.99-5.37-2.96-6.97c-1.98-1.59-4.84-2.39-8.58-2.39c-2.01,0-4.07,0.3-6.19,0.88c-2.12,0.59-4.32,1.54-6.6,2.86
		c-1.53,0.83-2.93,1.13-4.21,0.88c-1.28-0.24-2.38-0.83-3.28-1.77c-0.9-0.94-1.49-2.06-1.77-3.38c-0.28-1.32-0.14-2.63,0.42-3.95
		c0.55-1.32,1.59-2.43,3.12-3.33c3.05-1.87,6.38-3.28,9.98-4.21c3.6-0.94,7.18-1.4,10.71-1.4c5.48,0,10.09,0.82,13.83,2.44
		c3.74,1.63,6.59,4,8.53,7.12c1.94,3.12,2.91,6.93,2.91,11.44c0,2.91-0.45,5.76-1.35,8.53c-0.9,2.77-2.31,5.56-4.21,8.37
		c-1.91,2.81-4.42,5.81-7.54,9L84.3,98.28v-4.16h28.18c2.22,0,3.9,0.56,5.04,1.66c1.14,1.11,1.72,2.74,1.72,4.89
		c0,2.15-0.57,3.8-1.72,4.94c-1.14,1.14-2.83,1.72-5.04,1.72H75.15z"/>
	<path class="st0" d="M153.15,108.47c-8.88,0-15.65-3.31-20.33-9.93c-4.68-6.62-7.02-16-7.02-28.13c0-8.11,1.06-14.96,3.17-20.54
		c2.11-5.58,5.2-9.81,9.26-12.69c4.06-2.88,9.03-4.32,14.92-4.32c8.94,0,15.74,3.21,20.38,9.62c4.64,6.41,6.97,15.72,6.97,27.92
		c0,8.11-1.06,14.99-3.17,20.64c-2.12,5.65-5.18,9.97-9.2,12.95C164.1,106.98,159.11,108.47,153.15,108.47z M153.15,95.37
		c4.02,0,7-1.99,8.94-5.98c1.94-3.99,2.91-10.31,2.91-18.98c0-8.67-0.97-14.91-2.91-18.72c-1.94-3.81-4.92-5.72-8.94-5.72
		c-4.02,0-7,1.91-8.94,5.72c-1.94,3.81-2.91,10.05-2.91,18.72c0,8.67,0.97,14.99,2.91,18.98C146.15,93.38,149.13,95.37,153.15,95.37
		z"/>
	<path class="st0" d="M28.66,166.91c-1.48,0-2.99-0.12-4.53-0.34c-1.54-0.23-3-0.56-4.4-0.98c-1.4-0.42-2.64-0.95-3.74-1.59
		c-0.78-0.42-1.33-0.98-1.64-1.67c-0.32-0.69-0.43-1.39-0.34-2.09c0.09-0.71,0.35-1.33,0.79-1.88c0.44-0.55,1.01-0.9,1.7-1.06
		c0.69-0.16,1.46-0.03,2.31,0.4c1.45,0.81,3.03,1.41,4.74,1.8c1.71,0.39,3.42,0.58,5.11,0.58c2.58,0,4.42-0.4,5.51-1.19
		c1.09-0.79,1.64-1.79,1.64-3c0-1.02-0.39-1.84-1.17-2.44c-0.78-0.6-2.14-1.11-4.08-1.54l-5.99-1.27c-3.39-0.71-5.91-1.92-7.55-3.63
		s-2.46-3.97-2.46-6.76c0-1.77,0.37-3.37,1.11-4.82c0.74-1.45,1.78-2.7,3.13-3.76c1.34-1.06,2.94-1.87,4.8-2.44
		c1.85-0.56,3.9-0.85,6.12-0.85c1.98,0,3.92,0.24,5.83,0.72c1.91,0.48,3.59,1.17,5.04,2.09c0.71,0.42,1.19,0.96,1.46,1.62
		c0.27,0.65,0.35,1.31,0.27,1.96c-0.09,0.65-0.35,1.23-0.79,1.72c-0.44,0.5-1,0.81-1.67,0.95c-0.67,0.14-1.48-0.02-2.44-0.48
		c-1.17-0.6-2.4-1.04-3.71-1.32c-1.31-0.28-2.65-0.42-4.03-0.42c-1.48,0-2.75,0.2-3.79,0.58c-1.04,0.39-1.84,0.94-2.38,1.64
		c-0.55,0.71-0.82,1.52-0.82,2.44c0,1.03,0.37,1.86,1.11,2.49c0.74,0.64,2.03,1.15,3.87,1.54l5.99,1.27
		c3.46,0.74,6.04,1.93,7.74,3.58c1.7,1.64,2.54,3.81,2.54,6.49c0,1.77-0.35,3.37-1.06,4.8c-0.71,1.43-1.73,2.66-3.07,3.68
		c-1.34,1.02-2.95,1.81-4.82,2.36C33.1,166.64,31,166.91,28.66,166.91z"/>
	<path class="st0" d="M66.77,166.91c-4.03,0-7.47-0.79-10.33-2.38c-2.86-1.59-5.06-3.82-6.6-6.71c-1.54-2.88-2.31-6.28-2.31-10.2
		c0-2.93,0.43-5.57,1.3-7.92c0.87-2.35,2.13-4.36,3.79-6.04c1.66-1.68,3.68-2.98,6.07-3.9c2.38-0.92,5.08-1.38,8.08-1.38
		c1.77,0,3.56,0.22,5.38,0.66c1.82,0.44,3.4,1.07,4.74,1.88c0.88,0.5,1.48,1.11,1.8,1.86s0.42,1.48,0.29,2.23
		c-0.12,0.74-0.42,1.38-0.9,1.91s-1.07,0.87-1.78,1.01c-0.71,0.14-1.5-0.02-2.39-0.48c-1.06-0.64-2.17-1.09-3.34-1.38
		c-1.17-0.28-2.35-0.42-3.55-0.42c-2.37,0-4.35,0.47-5.96,1.4c-1.61,0.94-2.82,2.29-3.63,4.05c-0.81,1.77-1.22,3.94-1.22,6.52
		c0,2.54,0.41,4.72,1.22,6.52c0.81,1.8,2.02,3.17,3.63,4.11c1.61,0.94,3.6,1.4,5.96,1.4c1.13,0,2.29-0.14,3.47-0.42
		c1.18-0.28,2.32-0.72,3.42-1.33c0.92-0.46,1.74-0.63,2.46-0.5c0.72,0.12,1.33,0.44,1.8,0.95c0.48,0.51,0.78,1.12,0.9,1.83
		c0.12,0.71,0.04,1.41-0.24,2.12c-0.28,0.71-0.81,1.31-1.59,1.8c-1.31,0.88-2.92,1.57-4.82,2.07
		C70.53,166.67,68.64,166.91,66.77,166.91z"/>
	<path class="st0" d="M100.32,166.91c-3.67,0-6.9-0.8-9.67-2.41c-2.77-1.61-4.93-3.86-6.47-6.76c-1.54-2.9-2.31-6.27-2.31-10.12
		c0-2.93,0.43-5.57,1.3-7.92c0.87-2.35,2.11-4.36,3.74-6.04c1.62-1.68,3.58-2.98,5.86-3.9c2.28-0.92,4.8-1.38,7.55-1.38
		c3.75,0,7,0.79,9.75,2.38c2.76,1.59,4.9,3.83,6.44,6.71s2.31,6.25,2.31,10.1c0,2.93-0.44,5.58-1.33,7.95
		c-0.88,2.37-2.14,4.4-3.76,6.09c-1.63,1.7-3.57,3-5.83,3.92C105.64,166.45,103.11,166.91,100.32,166.91z M100.32,159.92
		c2.08,0,3.86-0.49,5.33-1.46s2.6-2.39,3.39-4.24c0.79-1.86,1.19-4.05,1.19-6.6c0-3.89-0.87-6.9-2.6-9.04
		c-1.73-2.14-4.17-3.21-7.31-3.21c-2.05,0-3.82,0.48-5.3,1.43c-1.48,0.95-2.62,2.35-3.39,4.19c-0.78,1.84-1.17,4.05-1.17,6.63
		c0,3.85,0.87,6.86,2.6,9.04C94.79,158.83,97.21,159.92,100.32,159.92z"/>
	<path class="st0" d="M128.67,166.81c-1.34,0-2.37-0.37-3.07-1.11c-0.71-0.74-1.06-1.78-1.06-3.13v-29.42
		c0-1.38,0.36-2.42,1.09-3.13c0.72-0.71,1.76-1.06,3.1-1.06h12.88c4.17,0,7.38,1.01,9.65,3.02c2.26,2.01,3.39,4.82,3.39,8.43
		c0,2.33-0.51,4.35-1.54,6.04c-1.03,1.7-2.5,3-4.43,3.92c-1.93,0.92-4.29,1.38-7.08,1.38l0.42-0.9h2.17c1.48,0,2.78,0.36,3.9,1.09
		c1.11,0.72,2.08,1.83,2.89,3.31l3.29,6.09c0.49,0.88,0.72,1.75,0.69,2.6c-0.04,0.85-0.35,1.54-0.95,2.07
		c-0.6,0.53-1.48,0.79-2.65,0.79s-2.11-0.25-2.84-0.74c-0.72-0.5-1.37-1.25-1.93-2.28l-5.09-9.38c-0.53-0.99-1.17-1.66-1.93-2.01
		c-0.76-0.35-1.69-0.53-2.78-0.53h-4.03v10.71c0,1.34-0.34,2.38-1.03,3.13C131.03,166.44,130.02,166.81,128.67,166.81z
		 M132.75,145.92h7.37c2.19,0,3.84-0.44,4.96-1.33c1.11-0.88,1.67-2.21,1.67-3.97c0-1.73-0.56-3.04-1.67-3.92
		c-1.11-0.88-2.76-1.33-4.96-1.33h-7.37V145.92z"/>
	<path class="st0" d="M165.08,166.33c-1.38,0-2.44-0.37-3.18-1.11s-1.11-1.8-1.11-3.18v-28.78c0-1.38,0.37-2.44,1.11-3.18
		s1.8-1.11,3.18-1.11h18.5c1.06,0,1.86,0.27,2.41,0.82c0.55,0.55,0.82,1.33,0.82,2.36c0,1.06-0.27,1.86-0.82,2.41
		c-0.55,0.55-1.35,0.82-2.41,0.82h-14.95v8.75h13.73c1.09,0,1.92,0.27,2.46,0.82c0.55,0.55,0.82,1.35,0.82,2.41
		c0,1.06-0.27,1.86-0.82,2.41c-0.55,0.55-1.37,0.82-2.46,0.82h-13.73v9.33h14.95c1.06,0,1.86,0.27,2.41,0.82
		c0.55,0.55,0.82,1.33,0.82,2.36c0,1.06-0.27,1.86-0.82,2.41c-0.55,0.55-1.35,0.82-2.41,0.82H165.08z"/>
</g>
</svg>
